<svg width="73" height="57" viewBox="0 0 73 57" fill="none" xmlns="http://www.w3.org/2000/svg">
<g clip-path="url(#clip0_3_98)">
<path d="M62.003 36.3261V49.3469H10.9946V36.3261H1.19077V53.1744C1.19077 55.2868 3.38237 57 6.09997 57H66.8976C69.6127 57 71.8068 55.2887 71.8068 53.1744V36.3261H62.003Z" fill="#C58E4D"/>
<path d="M35.6014 35.0351L21.5654 21.7919C21.5654 21.7919 19.4298 20.2175 21.7456 20.2175C24.0614 20.2175 29.6549 20.2175 29.6549 20.2175C29.6549 20.2175 29.6549 19.1585 29.6549 17.5252C29.6549 12.8686 29.6549 4.39412 29.6549 0.939289C29.6549 0.939289 29.3407 0 31.1525 0C32.9788 0 40.9782 0 42.2858 0C43.5911 0 43.5618 0.79098 43.5618 0.79098C43.5618 4.14124 43.5618 12.9086 43.5618 17.413C43.5618 18.8732 43.5618 19.8201 43.5618 19.8201C43.5618 19.8201 48.0473 19.8201 50.8623 19.8201C53.6725 19.8201 51.5563 21.4686 51.5563 21.4686C51.5563 21.4686 39.6145 33.8467 37.9489 35.1454C36.7508 36.0866 35.6014 35.0351 35.6014 35.0351Z" fill="#C58E4D"/>
</g>
<defs>
<clipPath id="clip0_3_98">
<rect width="73" height="57" fill="white"/>
</clipPath>
</defs>
</svg>
