<svg width="83" height="83" viewBox="0 0 83 83" fill="none" xmlns="http://www.w3.org/2000/svg">
<circle cx="41.5" cy="41.5" r="40" stroke="white" stroke-width="3"/>
<path d="M43.8853 54.9854H37.0737C37.0981 52.6416 37.3057 50.7251 37.6963 49.2358C38.1113 47.7222 38.7827 46.3428 39.7104 45.0977C40.6382 43.8525 41.8711 42.4365 43.4092 40.8496C44.5322 39.7021 45.5576 38.6279 46.4854 37.627C47.4375 36.6016 48.2065 35.5029 48.7925 34.3311C49.3784 33.1348 49.6714 31.7065 49.6714 30.0464C49.6714 28.3618 49.3662 26.9092 48.7559 25.6885C48.1699 24.4678 47.291 23.5278 46.1191 22.8687C44.9717 22.2095 43.5435 21.8799 41.8345 21.8799C40.4185 21.8799 39.0757 22.1362 37.8062 22.6489C36.5366 23.1616 35.5112 23.9551 34.73 25.0293C33.9487 26.0791 33.5459 27.4585 33.5215 29.1675H26.7466C26.7954 26.4087 27.479 24.0405 28.7974 22.063C30.1401 20.0854 31.9468 18.5718 34.2173 17.522C36.4878 16.4722 39.0269 15.9473 41.8345 15.9473C44.9351 15.9473 47.5718 16.5088 49.7446 17.6318C51.9419 18.7549 53.6143 20.3662 54.7617 22.4658C55.9092 24.541 56.4829 27.0068 56.4829 29.8633C56.4829 32.0605 56.0312 34.0869 55.1279 35.9424C54.249 37.7734 53.1138 39.4946 51.7222 41.106C50.3306 42.7173 48.8535 44.2554 47.291 45.7202C45.9482 46.9653 45.0449 48.3691 44.5811 49.9316C44.1172 51.4941 43.8853 53.1787 43.8853 54.9854ZM36.7808 66.5942C36.7808 65.4956 37.1226 64.5679 37.8062 63.811C38.4897 63.0542 39.4785 62.6758 40.7725 62.6758C42.0908 62.6758 43.0918 63.0542 43.7754 63.811C44.459 64.5679 44.8008 65.4956 44.8008 66.5942C44.8008 67.644 44.459 68.5474 43.7754 69.3042C43.0918 70.061 42.0908 70.4395 40.7725 70.4395C39.4785 70.4395 38.4897 70.061 37.8062 69.3042C37.1226 68.5474 36.7808 67.644 36.7808 66.5942Z" fill="white"/>
</svg>
