<svg width="115" height="90" viewBox="0 0 115 90" fill="none" xmlns="http://www.w3.org/2000/svg">
<g clip-path="url(#clip0_4_131)">
<path d="M80.0393 44.528L80.0772 44.4828L80.0709 44.4778L80.0393 44.528Z" fill="#978D4F"/>
<path d="M110.425 50.7493C110.425 50.7493 109.251 49.499 106.473 48.6655C106.473 48.6655 106.242 48.6103 105.883 48.5199C103.406 47.611 101.058 47.0286 101.058 47.0286C100.558 46.888 100.121 46.7474 99.7107 46.6118C98.0362 45.9591 96.8235 45.2109 96.8235 45.2109C96.8235 45.2109 96.8107 45.2009 95.5211 44.1916C97.8372 42.3137 99.5375 39.7629 100.07 37.3226C100.481 36.9912 100.898 36.4589 101.077 35.6104C101.411 34.6664 101.828 33.0144 101.09 32.2462C101.045 32.206 101.007 32.1708 100.962 32.1357C101.655 30.1473 102.54 26.04 99.3963 23.2381C99.114 22.9569 97.3561 21.31 93.5835 20.4363L91.787 19.9492C88.8164 19.2312 86.9493 19.0756 86.8723 19.0655C86.7376 19.0555 86.5965 19.0655 86.4681 19.0906C86.3655 19.1157 86.0126 19.186 85.7431 19.1559C85.031 19.0756 83.9659 19.3618 83.7734 19.422C83.5296 19.4973 77.7809 21.2999 76.0422 25.4876C75.8818 25.824 75.1824 27.6066 76.1063 31.975C75.9716 32.0453 75.8497 32.1357 75.7342 32.2462C74.99 33.0144 75.407 34.6563 75.747 35.6053C75.9203 36.4439 76.3373 36.9711 76.7415 37.3075C77.2035 39.7177 78.6791 42.0375 80.6232 43.815C80.6232 43.815 82.0989 45.8134 82.2849 45.9992C86.9622 51.4221 87.5524 61.8763 87.6102 63.0512L87.6166 63.1265L87.6102 63.2069C87.5332 66.8623 85.2106 68.1327 83.9659 68.5545C83.3628 68.7654 82.734 68.9511 82.0989 69.1419C82.4132 68.7804 82.7212 68.1528 82.7405 67.0431C82.7405 67.0431 82.2849 51.6832 78.3263 47.0989C78.3263 47.0989 77.1971 45.8938 74.5216 45.0954C74.5216 45.0954 74.3034 45.0402 73.9506 44.9548C71.5767 44.0811 69.3182 43.5238 69.3182 43.5238C68.837 43.3882 68.4072 43.2577 68.0222 43.1221C66.4182 42.4944 65.2441 41.7764 65.2441 41.7764C65.2441 41.7764 65.2313 41.7664 63.993 40.7922C66.2193 38.9846 67.8554 36.5343 68.3623 34.1944C68.7665 33.8781 69.1642 33.3609 69.3375 32.5474C69.6519 31.6386 70.0561 30.0519 69.3439 29.3138C69.3054 29.2786 69.2669 29.2435 69.2284 29.2083C69.8957 27.2953 70.7426 23.3486 67.7207 20.6522C67.4448 20.3861 65.7509 18.7994 62.1323 17.9608L60.4 17.4989C57.5513 16.811 55.7549 16.6553 55.6779 16.6503C55.5495 16.6403 55.4148 16.6503 55.2865 16.6804C55.1838 16.7005 54.8502 16.7708 54.5871 16.7457C53.9071 16.6654 52.8805 16.9415 52.7008 16.9968C52.4699 17.0671 46.9457 18.7994 45.2711 22.8264C45.1172 23.1528 44.4499 24.865 45.3353 29.0627C45.2006 29.133 45.0851 29.2184 44.9824 29.3238C44.2703 30.0569 44.6745 31.6436 44.9888 32.5525C45.1621 33.3609 45.5599 33.873 45.9512 34.1894C46.3939 36.5041 47.8119 38.7386 49.6853 40.4458L49.1528 41.0835L49.14 41.0433L49.1207 41.1287C49.1271 41.1136 49.1464 41.0935 49.1528 41.0835L49.1464 41.0885L49.1207 41.1287C48.3701 42.9614 39.3749 45.1004 39.3749 45.1004C36.7058 45.8988 35.5766 47.1039 35.5766 47.1039C31.6244 51.6882 31.1624 67.0431 31.1624 67.0431C31.1817 68.1427 31.4832 68.7603 31.7848 69.1219C31.1752 68.9461 30.5529 68.7654 29.969 68.5645C28.7243 68.1427 26.3953 66.8623 26.3248 63.2119V63.1316V63.0512C26.3825 61.8763 26.9792 51.4322 31.5666 46.0997C31.8168 45.8285 32.6381 45.0251 34.1523 44.1966C34.1523 44.1966 34.1523 44.1916 34.1458 44.1916C36.462 42.3137 38.1622 39.7629 38.6948 37.3226C39.1054 36.9912 39.5224 36.4589 39.7085 35.6104C40.0421 34.6664 40.4592 33.0144 39.7149 32.2462C39.6764 32.206 39.6315 32.1708 39.593 32.1357C40.2859 30.1473 41.1713 26.04 38.0275 23.2381C37.7645 22.9569 36.0001 21.31 32.2275 20.4363L30.431 19.9492C27.4604 19.2312 25.5933 19.0756 25.5163 19.0655C25.3816 19.0555 25.2405 19.0655 25.1121 19.0906C25.0095 19.1207 24.6566 19.191 24.3807 19.1609C23.675 19.0806 22.6099 19.3668 22.4174 19.427C22.1736 19.4973 16.4313 21.2999 14.6862 25.4926C14.5258 25.8291 13.8328 27.6116 14.7503 31.98C14.6156 32.0503 14.4873 32.1407 14.3782 32.2512C13.634 33.0194 14.0574 34.6614 14.3846 35.6104C14.5579 36.4489 14.9749 36.9761 15.3791 37.3126C15.8411 39.7227 17.3167 42.0425 19.2672 43.82L18.7154 44.4828L18.7026 44.4376L18.6769 44.528C18.6833 44.513 18.7026 44.4929 18.709 44.4778V44.4828L18.6769 44.528C17.9006 46.4361 8.54608 48.6605 8.54608 48.6605C5.76796 49.494 4.59384 50.7443 4.59384 50.7443C0.481199 55.5144 0 66.1342 0 66.1342C0.0513278 68.5545 1.39227 68.8105 1.39227 68.8105C10.843 72.1095 25.6767 72.6919 25.6767 72.6919C26.4787 72.712 27.2166 72.6769 27.9608 72.6417L27.9801 72.702C27.9801 72.702 33.562 72.476 40.0485 71.5471C47.8696 73.0283 55.8318 73.3447 55.8318 73.3447C56.5953 73.3598 57.3139 73.3246 58.0261 73.2895L58.0454 73.3497C58.0454 73.3497 66.354 73.0183 74.3291 71.4467C81.0851 72.4559 87.0263 72.6919 87.0263 72.6919C87.8219 72.712 88.5662 72.6769 89.3104 72.6417L89.3297 72.702C89.3297 72.702 104.163 72.1145 113.614 68.8206C113.614 68.8206 114.949 68.5645 115 66.1393C115.019 66.1443 114.538 55.5244 110.425 50.7493Z" fill="#978D4F"/>
</g>
<defs>
<clipPath id="clip0_4_131">
<rect width="115" height="90" fill="white"/>
</clipPath>
</defs>
</svg>
