<svg width="83" height="83" viewBox="0 0 83 83" fill="none" xmlns="http://www.w3.org/2000/svg">
<circle cx="41.5" cy="41.5" r="40" stroke="#E7DFAE" stroke-width="3"/>
<g clip-path="url(#clip0_62_3)">
<path d="M67.5015 37.3112L42.0896 17.5328C42.0451 17.4941 42.0007 17.4651 41.9452 17.4361C41.3898 16.9721 40.5013 16.9528 39.9127 17.4071L14.5007 37.1856C13.8787 37.6689 13.8343 38.4906 14.3785 39.0319C14.6784 39.3219 15.0893 39.4669 15.5003 39.4669C15.8557 39.4669 16.2111 39.3606 16.4999 39.1383L21.0758 35.5712V36.2672V46.5914V58.6364C21.0758 60.4441 22.764 61.9231 24.8521 61.9231C24.8854 61.9231 24.9076 61.9231 24.9409 61.9231C24.9742 61.9231 24.9965 61.9231 25.0298 61.9231H32.8711C34.8258 61.9231 36.4141 60.5407 36.4141 58.8394V47.1134C36.4141 46.8524 36.6584 46.6398 36.9583 46.6398H45.055C45.3549 46.6398 45.5993 46.8524 45.5993 47.1134V58.8394C45.5993 60.5407 47.1875 61.9231 49.1423 61.9231H57.1613C59.2715 61.9231 60.9375 60.1154 60.9375 57.805V47.0554V43.7687V35.6969L65.5135 39.2639C65.8022 39.4863 66.1576 39.5926 66.513 39.5926C66.924 39.5926 67.3349 39.4476 67.6348 39.1576C68.1679 38.6163 68.1124 37.7946 67.5015 37.3112ZM57.9276 43.759V47.0458V57.7857C57.9276 58.7234 57.3945 59.2937 57.1502 59.2937H49.1312C48.8313 59.2937 48.5869 59.081 48.5869 58.82V47.1134C48.5869 45.4121 46.9987 44.0297 45.0439 44.0297H36.9472C34.9924 44.0297 33.4042 45.4121 33.4042 47.1134V58.8394C33.4042 59.1004 33.1598 59.313 32.86 59.313H25.0187C24.9853 59.313 24.9631 59.313 24.9298 59.313C24.8965 59.313 24.8743 59.313 24.841 59.313C24.4189 59.313 24.0635 59.0134 24.0635 58.6364V46.5818V36.2575V33.2318L40.9234 20.1235L57.9276 33.3575V43.759Z" fill="#E7DFAE"/>
</g>
<defs>
<clipPath id="clip0_62_3">
<rect width="54" height="47" fill="white" transform="translate(14 16)"/>
</clipPath>
</defs>
</svg>
