<svg width="83" height="83" viewBox="0 0 83 83" fill="none" xmlns="http://www.w3.org/2000/svg">
<circle cx="41.5" cy="41.5" r="40.5" stroke="#E7DFAE" stroke-width="2"/>
<path d="M39.5455 70.8182V12.6364H43.2727V70.8182H39.5455ZM52.0909 30.0909C51.8182 27.7879 50.7121 26 48.7727 24.7273C46.8333 23.4545 44.4545 22.8182 41.6364 22.8182C39.5758 22.8182 37.7727 23.1515 36.2273 23.8182C34.697 24.4848 33.5 25.4015 32.6364 26.5682C31.7879 27.7348 31.3636 29.0606 31.3636 30.5455C31.3636 31.7879 31.6591 32.8561 32.25 33.75C32.8561 34.6288 33.6288 35.3636 34.5682 35.9545C35.5076 36.5303 36.4924 37.0076 37.5227 37.3864C38.553 37.75 39.5 38.0455 40.3636 38.2727L45.0909 39.5455C46.303 39.8636 47.6515 40.303 49.1364 40.8636C50.6364 41.4242 52.0682 42.1894 53.4318 43.1591C54.8106 44.1136 55.947 45.3409 56.8409 46.8409C57.7349 48.3409 58.1818 50.1818 58.1818 52.3636C58.1818 54.8788 57.5227 57.1515 56.2045 59.1818C54.9015 61.2121 52.9924 62.8258 50.4773 64.0227C47.9773 65.2197 44.9394 65.8182 41.3636 65.8182C38.0303 65.8182 35.1439 65.2803 32.7045 64.2045C30.2803 63.1288 28.3712 61.6288 26.9773 59.7045C25.5985 57.7803 24.8182 55.5455 24.6364 53H30.4545C30.6061 54.7576 31.197 56.2121 32.2273 57.3636C33.2727 58.5 34.5909 59.3485 36.1818 59.9091C37.7879 60.4545 39.5152 60.7273 41.3636 60.7273C43.5152 60.7273 45.447 60.3788 47.1591 59.6818C48.8712 58.9697 50.2273 57.9848 51.2273 56.7273C52.2273 55.4545 52.7273 53.9697 52.7273 52.2727C52.7273 50.7273 52.2955 49.4697 51.4318 48.5C50.5682 47.5303 49.4318 46.7424 48.0227 46.1364C46.6136 45.5303 45.0909 45 43.4545 44.5455L37.7273 42.9091C34.0909 41.8636 31.2121 40.3712 29.0909 38.4318C26.9697 36.4924 25.9091 33.9545 25.9091 30.8182C25.9091 28.2121 26.6136 25.9394 28.0227 24C29.447 22.0455 31.3561 20.5303 33.75 19.4545C36.1591 18.3636 38.8485 17.8182 41.8182 17.8182C44.8182 17.8182 47.4848 18.3561 49.8182 19.4318C52.1515 20.4924 54 21.947 55.3636 23.7955C56.7424 25.6439 57.4697 27.7424 57.5455 30.0909H52.0909Z" fill="#E7DFAE"/>
</svg>
