<svg width="189" height="109" viewBox="0 0 189 109" fill="none" xmlns="http://www.w3.org/2000/svg">
<g clip-path="url(#clip0_3_122)">
<path d="M87.125 33.4395C41 41.7994 30.2375 67.5896 19.5775 89.1999L29.2638 91.9587L34.3888 82.3448C36.5044 83.027 38.7324 83.4496 41 83.5988C97.375 83.5988 112.75 12.5398 112.75 12.5398C107.625 20.8997 71.75 21.9447 46.125 26.1246C20.5 30.3045 10.25 48.0693 10.25 56.4292C10.9584 62.3358 14.1233 67.8671 19.2188 72.104C35.875 33.4395 87.125 33.4395 87.125 33.4395Z" fill="#978D4F"/>
</g>
<path d="M172.471 37.2157C172.226 37.7716 171.977 38.3308 171.728 38.8932C174.572 49.4247 173.521 60.8668 166.345 73.3602C167.387 65.337 167.214 57.662 165.577 50.3066C163.645 53.1535 161.182 55.9142 158.659 58.6909C159.017 66.6694 157.051 75.0889 151.896 84.0739C152.723 77.693 152.571 71.5422 151.744 65.5607C148.365 68.4715 144.593 71.2674 140.366 73.8268C139.366 78.888 137.481 84.125 134.371 89.5473C134.928 85.2402 135.021 80.9841 134.831 76.8558C125.461 81.6807 114.337 85.5405 100.858 87.6845C112.21 82.8597 121.268 77.8815 128.685 72.7787C123.808 72.0087 118.787 71.5038 113.771 71.1491C120.403 69.8806 126.951 69.3854 133.296 69.5196C137.831 66.008 141.619 62.4741 144.674 58.8059C136.215 57.6524 127.655 57.3201 118.998 57.7579C128.933 54.1153 138.835 52.8436 148.669 53.3325C151.208 49.3704 152.947 45.2709 154.204 41.1075C146.724 40.5707 138.578 41.9159 129.296 43.67C137.675 37.8547 146.732 35.3305 155.739 34.5892C156.208 31.7039 156.452 28.8122 156.499 25.831C114.953 3.44193 125.959 78.7442 60.8808 90.8414C114.429 115.966 218.118 79.5303 172.471 37.2157ZM162.793 12.6506C165.443 11.6761 168.657 11.6186 171.096 13.3504C172.488 23.2652 168.227 44.226 151.415 58.8794C164.236 41.1841 165.173 28.3712 162.793 12.6538V12.6506Z" fill="#978D4F"/>
<defs>
<clipPath id="clip0_3_122">
<rect width="123" height="100.319" rx="6" fill="white"/>
</clipPath>
</defs>
</svg>
