<svg width="83" height="83" viewBox="0 0 83 83" fill="none" xmlns="http://www.w3.org/2000/svg">
<path d="M43.4142 16.5858C42.6332 15.8047 41.3668 15.8047 40.5858 16.5858L27.8579 29.3137C27.0768 30.0948 27.0768 31.3611 27.8579 32.1421C28.6389 32.9232 29.9052 32.9232 30.6863 32.1421L42 20.8284L53.3137 32.1421C54.0948 32.9232 55.3611 32.9232 56.1421 32.1421C56.9232 31.3611 56.9232 30.0948 56.1421 29.3137L43.4142 16.5858ZM44 66V18H40V66H44Z" fill="#E7DFAE"/>
<path d="M43.4142 28.5858C42.6332 27.8047 41.3668 27.8047 40.5858 28.5858L27.8579 41.3137C27.0768 42.0948 27.0768 43.3611 27.8579 44.1421C28.6389 44.9232 29.9052 44.9232 30.6863 44.1421L42 32.8284L53.3137 44.1421C54.0948 44.9232 55.3611 44.9232 56.1421 44.1421C56.9232 43.3611 56.9232 42.0948 56.1421 41.3137L43.4142 28.5858ZM44 66V30H40V66H44Z" fill="#E7DFAE"/>
<path d="M43.4142 40.5858C42.6332 39.8047 41.3668 39.8047 40.5858 40.5858L27.8579 53.3137C27.0768 54.0948 27.0768 55.3611 27.8579 56.1421C28.6389 56.9232 29.9052 56.9232 30.6863 56.1421L42 44.8284L53.3137 56.1421C54.0948 56.9232 55.3611 56.9232 56.1421 56.1421C56.9232 55.3611 56.9232 54.0948 56.1421 53.3137L43.4142 40.5858ZM44 66V42H40V66H44Z" fill="#E7DFAE"/>
<circle cx="41.5" cy="41.5" r="40" stroke="#E7DFAE" stroke-width="3"/>
</svg>
